<svg width="640" height="480" viewBox="0 0 640 480" fill="none" xmlns="http://www.w3.org/2000/svg">
  <rect width="640" height="480" fill="url(#bg)"/>
  <ellipse cx="458" cy="106" rx="148" ry="102" fill="#FFD09A" fill-opacity="0.24"/>
  <ellipse cx="160" cy="418" rx="204" ry="118" fill="#562036" fill-opacity="0.45"/>
  <path d="M248 118L302 376C306 394 322 408 340 408H402C420 408 436 394 440 376L494 118H248Z" fill="#F29B61" fill-opacity="0.84"/>
  <path d="M264 118H478" stroke="#FDE2A6" stroke-width="12" stroke-linecap="round"/>
  <path d="M278 168H464" stroke="#FFDCA0" stroke-opacity="0.65" stroke-width="8" stroke-linecap="round"/>
  <path d="M286 220H454" stroke="#FFDCA0" stroke-opacity="0.35" stroke-width="8" stroke-linecap="round"/>
  <path d="M370 88V118" stroke="#FDE2A6" stroke-width="8" stroke-linecap="round"/>
  <circle cx="448" cy="126" r="38" stroke="#FDE2A6" stroke-width="8"/>
  <path d="M448 126L482 108" stroke="#FDE2A6" stroke-width="8" stroke-linecap="round"/>
  <path d="M176 344C214 320 246 312 280 320C252 346 228 378 212 416C196 396 182 372 176 344Z" fill="#56C1B0" fill-opacity="0.78"/>
  <defs>
    <linearGradient id="bg" x1="74" y1="38" x2="542" y2="472" gradientUnits="userSpaceOnUse">
      <stop stop-color="#321627"/>
      <stop offset="0.5" stop-color="#151121"/>
      <stop offset="1" stop-color="#28132B"/>
    </linearGradient>
  </defs>
</svg>
